<?xml version="1.0" encoding="utf-8"?>
<!-- Generator: Adobe Illustrator 18.1.1, SVG Export Plug-In . SVG Version: 6.00 Build 0)  -->
<svg version="1.1" id="Layer_2" xmlns="http://www.w3.org/2000/svg" xmlns:xlink="http://www.w3.org/1999/xlink" x="0px" y="0px"
	 width="321px" height="27px" viewBox="0 0 331.5 27.8" enable-background="new 0 0 331.5 27.8" xml:space="preserve">
<g>
	<g>
		<path fill="#FFFFFF" d="M10.8,1.3L10.8,1.3L10.8,1.3C10.8,1.3,10.8,1.3,10.8,1.3L10.8,1.3C10.7,1.3,6.2,1.3,0,0v18v0
			c0,0.3,0,0.5,0,0.5l0,0l0,0c0,0.8,0.3,1.5,0.8,2.1c0.3,0.4,0.8,0.7,1.4,1.1c0.2,0.1,0.4,0.2,0.6,0.3c0.2,0.1,0.3,0.1,0.5,0.2v0
			l0,0c0.1,0.1,0.6,0.2,0.7,0.3l6.8,2.6v0l0,0l0,0v0l6.8-2.6c0.1-0.1,0.6-0.2,0.7-0.3l0,0v0c0.2-0.1,0.3-0.1,0.5-0.2
			c0.2-0.1,0.4-0.2,0.6-0.3c0.6-0.4,1.1-0.7,1.4-1.1c0.5-0.6,0.7-1.2,0.8-2.1l0,0l0,0c0,0,0-0.2,0-0.5v0V0
			C15.4,1.3,10.9,1.3,10.8,1.3z"/>
		<g>
			<path fill="#007360" d="M10.8,2.3L10.8,2.3L10.8,2.3C10.8,2.3,10.8,2.3,10.8,2.3L10.8,2.3c-0.1,0-4.2,0-9.9-1.1v16.4v0
				c0,0.3,0,0.4,0,0.4l0,0l0,0c0,0.8,0.3,1.4,0.7,1.9C2,20.3,2.4,20.7,3,21c0.2,0.1,0.3,0.2,0.5,0.3c0.1,0.1,0.3,0.1,0.4,0.2v0l0,0
				c0.1,0.1,0.5,0.2,0.7,0.3l6.2,2.4v0l0,0l0,0v0l6.2-2.4c0.1,0,0.5-0.2,0.7-0.3l0,0v0c0.2-0.1,0.3-0.1,0.4-0.2
				c0.2-0.1,0.4-0.2,0.5-0.3c0.6-0.3,1-0.7,1.3-1c0.5-0.5,0.7-1.1,0.7-1.9l0,0l0,0c0,0,0-0.2,0-0.4v0V1.2C15,2.4,10.9,2.3,10.8,2.3z
				"/>
			<path fill="#E1C4AC" d="M10.8,3.3L10.8,3.3L10.8,3.3C10.8,3.3,10.8,3.3,10.8,3.3L10.8,3.3c-0.1,0-3.8,0-9-1v4.2
				c5.2,1.1,8.9,1,9,1v0c0,0,0,0,0,0l0,0v0c0.1,0,3.8,0,9-1V2.3C14.6,3.3,10.9,3.3,10.8,3.3z"/>
			<path fill="#A51417" d="M10.8,7.5L10.8,7.5L10.8,7.5C10.8,7.5,10.8,7.5,10.8,7.5L10.8,7.5c-0.1,0-3.8,0-9-1v5.1v4.2
				c5.2,1.1,8.9,1,9,1v0c0,0,0,0,0,0c0,0,0,0,0,0v0c0.1,0,3.8,0,9-1v-4.2V6.5C14.6,7.5,10.9,7.5,10.8,7.5z"/>
			<path fill="#E1C4AC" d="M1.8,17.7L1.8,17.7c0,0.7,0.2,1.3,0.7,1.7c0.3,0.3,0.7,0.6,1.2,0.9c0.1,0.1,0.3,0.2,0.5,0.2
				c0.1,0.1,0.3,0.1,0.4,0.2v0l0,0c0.1,0,0.5,0.2,0.6,0.3l5.7,2.2v0l0,0l0,0v0l5.7-2.2c0.1,0,0.5-0.2,0.6-0.3l0,0v0
				c0.1-0.1,0.3-0.1,0.4-0.2c0.2-0.1,0.3-0.2,0.5-0.2c0.5-0.3,0.9-0.6,1.2-0.9c0.4-0.5,0.6-1,0.7-1.7l0,0l0,0c0,0,0-0.2,0-0.4v0
				v-1.5c-5.2,1.1-8.9,1-9,1v0c0,0,0,0,0,0c0,0,0,0,0,0v0c-0.1,0-3.8,0-9-1v1.5C1.8,17.6,1.8,17.7,1.8,17.7L1.8,17.7z"/>
			<polygon fill-rule="evenodd" clip-rule="evenodd" fill="#007360" points="5,3.2 5.4,4.5 6.7,4.5 5.6,5.3 6,6.6 5,5.8 3.9,6.6
				4.3,5.3 3.2,4.5 4.5,4.5 			"/>
			<polygon fill-rule="evenodd" clip-rule="evenodd" fill="#007360" points="16.6,3.2 17.1,4.5 18.4,4.5 17.3,5.3 17.7,6.6
				16.6,5.8 15.6,6.6 16,5.3 14.9,4.5 16.2,4.5 			"/>
			<polygon fill-rule="evenodd" clip-rule="evenodd" fill="#007360" points="10.8,3.7 11.2,5 12.6,5 11.5,5.8 11.9,7.1 10.8,6.3
				9.7,7.1 10.1,5.8 9,5 10.4,5 			"/>
			<g>
				<polygon fill="#007360" points="10.8,17.2 10.3,17.7 10.3,17.7 10.3,18.9 10.3,18.9 10.3,18.9 10.3,18.9 10.3,18.9 10.6,19.6
					10.6,20.7 11,20.7 11,19.6 11.3,18.9 11.3,18.9 11.3,17.7 				"/>
				<polygon fill="#007360" points="11,21.8 11,21.1 10.6,21.1 10.6,21.8 10.3,22.2 10.8,22.8 11.3,22.2 				"/>
				<polygon fill="#007360" points="11.4,21.1 11.4,21.6 11.7,21.9 12.2,21.5 12.2,21.1 				"/>
				<polygon fill="#007360" points="11.9,19 11.4,19.6 11.4,20.7 11.8,20.7 11.8,20.1 12.3,19.6 12.3,19.6 12.8,19.9 13.2,19.6
					13.2,19 				"/>
				<polygon fill="#007360" points="10.2,21.1 10.2,21.6 9.9,21.9 9.4,21.5 9.4,21.1 				"/>
				<polygon fill="#007360" points="9.7,19 10.2,19.6 10.2,20.7 9.8,20.7 9.8,20.1 9.3,19.6 9.3,19.6 8.8,19.9 8.4,19.6 8.4,19
					"/>
			</g>
			<g>
				<g>
					<polygon fill="#E1C4AC" points="15.1,9 15.1,14.4 11.5,14.4 11.2,14.6 10.8,15 10.4,14.6 10.1,14.4 6.5,14.4 6.5,9 5.7,9.6
						5.7,15.1 10,15.1 10.4,15.4 10.8,15.8 11.2,15.4 11.6,15.1 15.9,15.1 15.9,9.6 					"/>
				</g>
				<g>
					<polygon fill="#E1C4AC" points="11.4,8.5 11.2,8.7 10.8,9.1 10.4,8.7 10.2,8.5 7.3,8.5 7.3,13.6 10.2,13.6 10.4,13.8
						10.8,14.1 11.2,13.8 11.4,13.6 14.3,13.6 14.3,8.5 					"/>
				</g>
			</g>
			<g>
				<path fill="#E1C4AC" d="M16.6,10.1v3.4c1-0.1,2-0.3,3.2-0.6V9.6C18.7,9.8,17.6,10,16.6,10.1z"/>
				<path fill="#E1C4AC" d="M5,10.1c-1-0.1-2-0.3-3.2-0.6V13C2.9,13.2,4,13.4,5,13.5V10.1z"/>
			</g>
			<g>
				<polygon fill="#007360" points="16.6,16.7 16.3,17.1 16.3,17.1 16.3,18 16.3,18 16.3,18 16.3,18 16.3,18 16.5,18.4 16.5,19.2
					16.8,19.2 16.8,18.4 17,18 17,18 17,17.1 				"/>
				<polygon fill="#007360" points="16.8,19.9 16.8,19.5 16.5,19.5 16.5,19.9 16.3,20.2 16.6,20.6 17,20.2 				"/>
				<polygon fill="#007360" points="17,19.5 17,19.8 17.3,20.1 17.6,19.8 17.6,19.5 				"/>
				<polygon fill="#007360" points="17.4,18 17,18.4 17,19.2 17.4,19.2 17.4,18.7 17.7,18.4 17.7,18.4 18.1,18.7 18.3,18.4 18.3,18
									"/>
				<polygon fill="#007360" points="16.2,19.5 16.2,19.8 16,20.1 15.7,19.8 15.7,19.5 				"/>
				<polygon fill="#007360" points="15.9,18 16.2,18.4 16.2,19.2 15.9,19.2 15.9,18.7 15.6,18.4 15.6,18.4 15.2,18.7 15,18.4 15,18
									"/>
			</g>
			<g>
				<polygon fill="#007360" points="5,16.7 4.6,17.1 4.6,17.1 4.6,18 4.6,18 4.6,18 4.6,18 4.6,18 4.8,18.4 4.8,19.2 5.1,19.2
					5.1,18.4 5.3,18 5.3,18 5.3,17.1 				"/>
				<polygon fill="#007360" points="5.1,19.9 5.1,19.5 4.8,19.5 4.8,19.9 4.6,20.2 5,20.6 5.3,20.2 				"/>
				<polygon fill="#007360" points="5.4,19.5 5.4,19.8 5.6,20.1 5.9,19.8 5.9,19.5 				"/>
				<polygon fill="#007360" points="5.7,18 5.4,18.4 5.4,19.2 5.7,19.2 5.7,18.7 6,18.4 6,18.4 6.4,18.7 6.6,18.4 6.6,18 				"/>
				<polygon fill="#007360" points="4.6,19.5 4.6,19.8 4.3,20.1 4,19.8 4,19.5 				"/>
				<polygon fill="#007360" points="4.2,18 4.6,18.4 4.6,19.2 4.2,19.2 4.2,18.7 3.9,18.4 3.9,18.4 3.5,18.7 3.3,18.4 3.3,18
					"/>
			</g>
		</g>
	</g>
	<g>
		<path fill="#FFFFFF" d="M240.1,7.9c0.3,0,1.1-1.2,1.1-1.6c0-0.4-0.8-1.6-1.1-1.6c-0.3,0-1.1,1.3-1.1,1.6S239.7,7.9,240.1,7.9z"/>
		<path fill="#FFFFFF" d="M254.3,20.3V15c0-2.4-0.8-6-4.4-6c-2.6,0-3.9,2.5-3.9,2.1V9.3c0-0.3-0.2-0.5-0.3-0.5c-0.6,0-1.1,1-3.2,1.7
			c-0.1,0-0.5,0-0.5,0.3c0,0.7,2.1-0.9,2.1,1.7v7.9c0,1.5-0.7,1.6-1.3,1.7c0,0-0.1,0-0.1,0c-0.5,0-1.7-0.2-1.7-1.4V9.3
			c0-0.3-0.2-0.5-0.3-0.5c-0.6,0-1,1.1-2.7,1.7c-0.1,0-0.4,0.1-0.4,0.2c0,0.7,1.5-0.6,1.5,1.8V20c0.1,1.9-1,2.1-1.6,2.1
			c-0.9,0-0.7,0.1-0.7,0.4c0,0.3,0.5,0.3,1.4,0.3c0.3,0,1-0.1,1.9-0.1c1.1,0,1.9,0.1,2.5,0.1c0.3,0,1.2-0.1,2.6-0.1
			c1.6,0,2.1,0.1,2.5,0.1c0.4,0,0.9-0.2,0.6-0.4c-0.4-0.4-2.4,0.1-2.4-2.1V13c0-0.5,0.9-2.5,3.2-2.5c2.2,0,3.1,2.4,3.1,4v6
			c0,2.3-0.8,1.6-1.2,2.1c-0.2,0.3,0.1,0.4,0.5,0.4c0.3,0,0.9-0.1,1.9-0.1c1.3,0,1.9,0.1,2.2,0.1c0.3,0,0.8-0.2,0.5-0.4
			C255.6,21.9,254.3,22.7,254.3,20.3z"/>
		<path fill="#FFFFFF" d="M50.5,1.9c0.4-0.1,0.6-0.2,0.6-0.2c0-0.3-0.1-0.3-0.4-0.3c-0.7,0-1.1,0.1-1.8,0.1c-0.7,0-1.3-0.1-1.9-0.1
			c-0.4,0-0.3,0.1-0.3,0.3c0,0.2,0.7,0.1,1.1,0.9c0.2,0.4,0.1,1.4-0.1,2l-5.2,14.2l-2.2-6.3l-0.9-2.3c0,0-0.1,0.1,0.5-1.8l1.2-3.6
			C41.7,2.9,42.3,2,43,2c1,0,1-0.6,0.2-0.6c-0.7,0-1.2,0.1-1.8,0.1c-0.7,0-1-0.1-1.8-0.1c-0.3,0-0.6,0.1-0.5,0.3
			c0,0.2,0.4,0.1,0.7,0.3c0.5,0.3,0.8,1.3,0.5,2.4L38.9,9l-1.6-4.3c-0.3-0.8-0.8-2.6,0-2.8c0.8-0.2,0.7-0.5,0.2-0.5
			c-0.9,0-1.4,0.1-2.2,0.1c-0.9,0-1.6-0.1-2.5-0.1c-0.2,0-0.5,0-0.4,0.4c0.1,0.2,0.5,0.1,0.8,0.3c1.1,0.7,1.3,1.6,1.7,2.6l2.4,6.7
			c0.4,1.2,0.5,0.8,0.1,1.8l-2.1,5.7L30.1,4.3c-0.4-1.1-0.6-1.8,0.3-2.3c0.4-0.2,0.5-0.2,0.5-0.3c0-0.1,0.1-0.3-0.5-0.3
			c-0.9,0-1.5,0.1-2.4,0.1c-1,0-1.6-0.1-2.5-0.1c-0.3,0-0.4,0.1-0.4,0.4c0,0.3,0.7,0.1,1.3,0.8c0.4,0.4,1,1.7,1.2,2.2l6.1,17.7
			c0.1,0.3,0.1,0.8,0.5,0.8c0.3,0,0.3-0.6,0.4-0.8l3.2-8.9l3.2,8.4c0.1,0.3,0.3,1.3,0.6,1.3c0.3,0,0.4-0.4,0.5-0.9L48.4,5
			C48.9,3.6,49.5,2.1,50.5,1.9z"/>
		<path fill="#FFFFFF" d="M118.1,8.8c-3.4,0-6,3.4-6,7.4c0,2,0.5,3.6,1.5,4.8c-0.3,0.2-0.9,0.7-2.2,0.7c-1.1,0-1.7-0.7-1.8-2.1V11
			c0,0,3.3,0,3.5,0c0.2,0,0.7-1.5,0.7-1.6c0-0.2,0.1-0.3,0.1-0.5c0-0.3-0.2-0.3-0.4,0c-0.2,0.2-0.3,0.6-1,0.6h-2.9
			c0-2.5,0-3.6-0.4-3.6c-0.4,0-0.3,0.1-0.7,1.2c-0.4,1.5-1.8,2.3-2.7,2.8c-0.4,0.1-0.8,0.1-1.3,0c-0.8-0.2-1.7-1.1-3.9-1.1
			c-2.5,0-4.6,2-4.6,4.7c0,1.5,0.6,2.8,1.8,3.6c-0.2,0.1-1.6,1.3-1.4,2.6c0,0,0,1.4,1.1,1.9c-0.3,0.1-0.7,0.4-1,0.7
			c-0.7-0.3-1.8-0.1-1.8-2V15c0-2.4-0.8-6-4.4-6c-2.6,0-3.9,2.5-3.9,2.1V9.3c0-0.3-0.2-0.5-0.3-0.5c-0.6,0-0.7,1-3,1.6
			c-0.1,0-0.4,0.1-0.4,0.3c0,0.7,1.8-0.7,1.8,1.7v7.9c0,1.7-1.3,1.7-1.6,1.7c-0.1,0-0.2,0-0.3,0C82,22.1,81,21.8,81,20.8V9.3
			c0-0.3-0.2-0.5-0.3-0.5c-0.6,0-1,1.1-2.7,1.7c-0.1,0-0.4,0.1-0.4,0.2c0,0.7,1.5-0.6,1.5,1.8V20c0.1,1.8-0.9,2.1-1.5,2.1
			c-0.7-0.1-1.3-0.4-1.3-1.5v-5.3c0-2.7-1-6.3-4.5-6.3c-1.5,0-2.8,0.8-3.9,2V1.9c0-0.3-0.2-0.5-0.3-0.5c-0.4,0-1.1,1.2-3.1,1.7
			c-0.1,0-0.6,0.1-0.6,0.3C64,4,66,3,66,5.1v15.6c0,1.6-1.3,1.3-1.6,1.8c0,0.2,0.1,0.3,0.3,0.3c0.4,0,1.6-0.1,2.4-0.1
			c0.8,0,2.2,0.1,2.7,0.1c0.3,0,0.5-0.1,0.5-0.4C70.1,21.9,68,22.7,68,20v-6.7c0-1.6,1.9-2.9,3.1-2.9c0.9,0,3.2,0.7,3.2,4.7v5.8
			c0,1.1-1.2,1.3-1.3,1.6c0,0.3,0.2,0.3,0.4,0.3c0.3,0,1.1-0.1,2.2-0.1c0.6,0,1.1,0,1.6,0.1c0.2,0,0.6,0.1,1,0.1
			c0.3,0,1-0.1,1.9-0.1c0.8,0,1.5,0.1,2.1,0.1c0.1,0,0.2,0,0.3,0c0,0,0.1,0,0.1,0c0,0,0,0,0,0c0.3,0,0.6,0,0.8,0
			c0.3,0,0.9-0.1,2.3-0.1c1.6,0,2.1,0.1,2.5,0.1c0.4,0,0.9-0.2,0.6-0.4c-0.4-0.4-2.4,0.1-2.4-2.1V13c0-0.5,0.9-2.5,3.2-2.5
			c2.2,0,3.1,2.4,3.1,4v6c0,2.1-0.8,1.6-1.1,2.1c-0.2,0.3,0.1,0.4,0.5,0.4c0.3,0,0.9-0.1,1.9-0.1c1,0,1.6,0.1,2,0.1
			c-0.3,0.4-0.5,0.9-0.5,1.4c-0.1,2.6,3,3.5,5.7,3.5c5.3-0.1,6.8-3.7,5.7-5.7c-1.1-2-3.5-1.9-5.9-1.9c-4.3,0-3.5-2.7-1.8-2.6
			c0.4,0,0.2,0.1,1.6,0.1c2.5,0,4.9-1.7,4.8-4.5c0-0.2,0.1-1.1-0.6-2.2c1.2,0,0.7,0,2.5,0l0,7.9c0,3.6,1.7,4.2,3,4.2
			c1.8,0,3.1-1.2,3.3-1.7c1.1,1.1,2.5,1.7,4.3,1.7c3.3,0,5.8-3,5.8-7C123.9,10,120.1,8.8,118.1,8.8z M98.7,21.9
			c0.2,0,0.3,0.1,2.7,0.2c2.5,0.1,3.4,0.8,3.6,1.5c0.3,1.2-0.5,3.6-4.2,3.4c-2.3-0.1-3-1.2-3.1-1.5C96.9,24.2,97.6,21.9,98.7,21.9z
			 M100.8,17.1c-2.1,0-2.9-2.1-2.9-4c0-2,0.6-3.7,2.8-3.7c2.2,0,3,2.2,3,4.2C103.8,15.6,102.9,17.1,100.8,17.1z M118.4,22.1
			c-3.1,0-4.4-3.9-4.4-7c0-2.7,1.1-5.3,3.7-5.3c3.2,0,4.3,3.4,4.3,6.7C122,20.5,120.6,22.1,118.4,22.1z"/>
		<path fill="#FFFFFF" d="M135.4,20.3V15c0-2.4-0.8-6-4.4-6c-2.6,0-3.9,2.5-3.9,2.1V9.3c0-0.3-0.2-0.5-0.3-0.5c-0.6,0-1.1,1-3.2,1.7
			c-0.1,0-0.5,0-0.5,0.3c0,0.7,2.1-0.9,2.1,1.7v7.9c0,2.1-1.4,1.6-1.7,2.1c-0.2,0.3,0.3,0.3,0.6,0.3c0.3,0,0.9-0.1,2.3-0.1
			c1.6,0,2.1,0.1,2.5,0.1c0.4,0,0.9-0.2,0.6-0.4c-0.4-0.4-2.4,0.1-2.4-2.1V13c0-0.5,0.9-2.5,3.2-2.5c2.2,0,3.1,2.4,3.1,4v6
			c0,2.3-0.8,1.6-1.1,2.1c-0.2,0.3,0.1,0.4,0.5,0.4c0.3,0,0.9-0.1,1.9-0.1c1.3,0,1.9,0.1,2.2,0.1c0.3,0,0.8-0.2,0.5-0.4
			C136.7,21.9,135.4,22.7,135.4,20.3z"/>
		<path fill="#FFFFFF" d="M79.9,7.9c0.3,0,1.1-1.2,1.1-1.6c0-0.4-0.8-1.6-1.1-1.6c-0.3,0-1.1,1.3-1.1,1.6S79.6,7.9,79.9,7.9z"/>
		<path fill="#FFFFFF" d="M62.1,15c-0.5-0.3-1.3-0.7-1.7-0.9c-1.7-0.9-2.3-1.5-2.4-2.4c-0.1-1.5,1.2-2.3,2.3-2.2
			c2.6,0,3,2.9,3.2,2.9c0.4,0,0.3-0.4,0.3-1.2c0-0.2,0-1.3-0.1-1.6c-0.3-0.5-2.2-0.8-2.6-0.8c-0.1,0-0.5,0-0.6,0c-0.1,0-0.3,0-0.3,0
			c-1.9,0-3.6,1.2-3.6,3.7c0.1,2.3,2.7,3.6,4.2,4.4c1.1,0.6,2.3,1.2,2.3,2.6c0,1.7-1.3,2.8-2.7,2.7c-3.3-0.1-2.8-4.1-3.4-4.1
			c-0.4,0-0.3,1-0.3,1.6c0,0.5,0,1,0,1.4c-0.1,0.4-0.2,0.7-0.6,0.7c-1.3,0.1-1-2-1-3v-6.6c-0.1-2-1.6-3.4-3.9-3.4
			c-3.2,0-5.5,3.9-4.4,5.2c0.3,0.3,1.3-0.8,1.4-0.9c0.1-0.1,0.1-0.1,0.1-0.1c0-1.3,1-3,2.4-3.2c1.7-0.2,2.5,1.1,2.5,2.7v2.2
			C46.9,16,46,18,46,19.7c0,2.3,1.6,3.3,3.3,3.3c1.5,0,3-0.7,4.1-1.9c0.3,1.1,1,1.7,2.1,1.7c0.4,0,0.4,0.1,1.5-0.4
			c0.4-0.1,0.4-0.1,0.8,0c0.6,0.2,1.4,0.6,2.7,0.6c2.1,0,4-1.9,4-4.3C64.5,17.2,64.1,16.3,62.1,15z M53.4,19.5
			c0,1.7-1.7,2.6-2.7,2.6c-1.4,0-2.4-0.9-2.4-2.8c0-2.8,3.4-3.3,5.1-3.8V19.5z"/>
		<path fill="#FFFFFF" d="M280.5,19.7c-0.3,0-1.1,1.3-1.1,1.7c0,0.3,0.8,1.6,1.1,1.6c0.3,0,1.1-1.3,1.1-1.6
			C281.7,21,280.9,19.7,280.5,19.7z"/>
		<path fill="#FFFFFF" d="M315.4,20.9V9.7c0-0.6-0.4-0.8-0.5-0.8c-0.4,0-0.6,0.1-0.9,0.2c-0.3,0.1-0.6,0.2-1.3,0.2
			c-0.1,0-0.8-0.1-0.8,0.3c0,0.4,1.6,0.2,1.6,1.3v8.1c-0.1,1.4-1.3,3-2.7,3c-0.3,0-2.5-0.2-2.4-3.8V9.7c0-0.6-0.4-0.8-0.5-0.8
			c-0.4,0-0.6,0.1-0.9,0.2c-0.3,0.1-0.6,0.2-1.4,0.2c-0.4,0-0.8-0.1-0.8,0.3c0.1,0.3,1.6,0,1.6,1.3v7.8c0,2.8,1.7,4.5,3.7,4.5
			c1.3,0,2.6-0.3,3.4-1.9h0.1v1.4c0,0.1,0,0.5,0.2,0.5c0.4,0,0.6-0.3,0.9-0.4c0.3-0.1,0.4-0.3,1.3-0.4c0.4,0,0.8-0.2,0.8-0.5
			C316.7,21.1,315.4,21.7,315.4,20.9z"/>
		<path fill="#FFFFFF" d="M299.6,8.8c-3.4,0-6,3.4-6,7.4c0,1.8,0.4,3.3,1.2,4.4c-0.8,0.6-2.3,1.1-5.1,1.1c-2.2,0-2-0.8-2-2.6V4.1
			c0-2.8,2.1-2,2.1-2.5c0-0.3-0.3-0.3-0.6-0.3c-0.4,0-1.1,0.2-2.6,0.2c-1.3,0-2.4-0.1-3-0.1c-0.3,0-0.7,0.1-0.5,0.4
			c0.3,0.6,2.2,0.1,2.2,1.7v15.6c0,1.5,0.2,2.4-0.5,2.8c-0.8,0.5-1.8,0.5-1.7,0.9c0.1,0.2,0.5,0.2,0.7,0.2c1,0,2.5-0.1,3.6-0.2
			c2-0.1,4,0.1,6,0.1c1.2,0,1.4-0.2,2.3-1.4c0,0,0,0,0-0.1c1,1,2.4,1.5,4,1.5c3.3,0,5.8-3,5.8-7C305.4,10,301.6,8.8,299.6,8.8z
			 M299.8,22.1c-3.1,0-4.4-3.9-4.4-7c0-2.7,1.1-5.3,3.7-5.3c3.2,0,4.3,3.4,4.3,6.7C303.5,20.5,302.1,22.1,299.8,22.1z"/>
		<path fill="#FFFFFF" d="M266.7,11.3c-0.8-0.4-1.9-1.1-2.5-1.4c-2.4-1.4-3.4-2.3-3.5-3.6c-0.1-2.3,2.1-3.6,3.7-3.5
			c2,0,3.7,1.2,4.4,3.9c0.1,0.3,0.3,0.9,0.6,0.9c0.2,0,0.3-0.2,0.2-0.5l-0.3-4.2c0-0.3-0.1-0.4-0.3-0.4c-0.2,0-0.4,0.3-0.6,0.3
			c-0.3,0-1.1-1.2-3.9-1.1c-0.2,0-0.4,0-0.4,0c-2.7,0-5.3,1.8-5.2,5.6c0.1,3.5,4,5.5,6.1,6.8c1.6,0.9,3.2,2.4,3.1,4.1
			c-0.1,2.5-1.7,4.2-3.7,4.1c-4.7-0.1-4.1-6.3-4.9-6.3c-0.6,0-0.5,1.6-0.5,2.4c0,2-0.1,3.6,0.1,3.9c0.1,0.1,0.3,0,0.8,0
			c0.9,0,2.1,1.1,4.8,1.1c3.1,0,5.6-2.8,5.6-6.5C270.3,14.6,269.7,13.2,266.7,11.3z"/>
		<path fill="#FFFFFF" d="M320.1,7.9c0.3,0,1.1-1.2,1.1-1.6c0-0.4-0.8-1.6-1.1-1.6c-0.3,0-1.1,1.3-1.1,1.6S319.8,7.9,320.1,7.9z"/>
		<path fill="#FFFFFF" d="M322.9,22.2c-0.5,0-1.7-0.2-1.7-1.4V9.3c0-0.3-0.2-0.5-0.3-0.5c-0.6,0-1,1.1-2.7,1.7
			c-0.1,0-0.4,0.1-0.4,0.2c0,0.7,1.5-0.6,1.5,1.8V20c0.1,1.9-1,2.1-1.6,2.1c-0.9,0-0.7,0.1-0.7,0.4c0,0.3,0.5,0.3,1.4,0.3
			c0.3,0,1-0.1,1.9-0.1c1.1,0,1.9,0.1,2.5,0.1C323.1,22.9,323.6,22,322.9,22.2z"/>
		<path fill="#FFFFFF" d="M329,15c-0.5-0.3-1.3-0.7-1.7-0.9c-1.7-0.9-2.3-1.5-2.4-2.4c-0.1-1.5,1.2-2.3,2.3-2.2c2.6,0,3,2.9,3.2,2.9
			c0.4,0,0.3-0.4,0.3-1.2c0-0.2,0-1.3-0.1-1.6c-0.3-0.5-2.2-0.8-2.6-0.8c-0.1,0-0.5,0-0.6,0c-0.1,0-0.3,0-0.3,0
			c-1.9,0-3.6,1.2-3.6,3.7c0.1,2.3,2.7,3.6,4.2,4.4c1.1,0.6,2.3,1.2,2.3,2.6c0,1.7-1.3,2.8-2.7,2.7c-3.3-0.1-2.8-4.1-3.4-4.1
			c-0.4,0-0.3,1-0.3,1.6c0,1.3-0.1,2.3,0.1,2.5c0,0.1,0.2,0,0.5,0c0.6,0,1.4,0.7,3.3,0.7c2.1,0,4-1.9,4-4.3
			C331.5,17.2,331,16.3,329,15z"/>
		<path fill="#FFFFFF" d="M278.7,20.9c-0.3,0.1-0.9,0.8-2.3,0.8c-1.1,0-1.7-0.7-1.8-2.1v-9.1c0,0,3.3,0,3.5,0c0.2,0,0.7-1.5,0.7-1.6
			c0-0.2,0.1-0.3,0.1-0.5c0-0.3-0.2-0.3-0.4,0c-0.2,0.2-0.3,0.6-1,0.6h-2.9c0-2.5,0-3.1-0.4-3.1c-0.4,0-0.3,0.1-0.7,1.2
			c-0.6,1.9-2.6,2.7-3.2,3.1c-0.2,0.1-0.2,0.1-0.2,0.2c0,0.2,0.8,0.1,2.4,0.2l0,8.3c0,3.6,1.7,4.2,3,4.2c1.9,0,3.3-1.4,3.4-1.9
			C278.9,20.9,278.9,20.9,278.7,20.9z"/>
		<path fill="#FFFFFF" d="M194.7,19.8c-0.6,0-1.5,1.7-3.8,1.7c-1.6,0-4.3-1.6-4.3-6.9h7.1c0.6,0,0.9,0,0.9-0.5
			c0-1.3-1.4-5.1-4.7-5.1c-3.3,0-5.3,3.4-5.3,7.6c0,2.1,1.4,6.6,5.4,6.6c2.4,0,4.7-2.3,4.7-3.1C194.8,19.9,194.8,19.8,194.7,19.8z
			 M189.5,9.6c1.5,0,3,1.6,3,3.4c0,0.5-0.2,0.6-0.5,0.6h-5.3C186.6,11.9,187.8,9.6,189.5,9.6z"/>
		<path fill="#FFFFFF" d="M156.7,2.1c0.1-0.2-0.3-0.2-0.4-0.2c-0.4,0-1.4,0.1-1.9,0.1c-0.9,0-1.7-0.1-2.6-0.1
			c-0.1,0-0.5,0.1-0.5,0.2c0,0.7,2.2-0.1,2.2,2.7v10.9c0,3.2-1,6.6-5.5,6.6c-3.2,0-4.9-2-4.9-6.4V4c0-2,1.5-1.5,1.6-2
			c0-0.4-1.4-0.2-1.5-0.2c-0.7,0-1.2,0.1-2,0.1c-0.6,0-1.4-0.1-2-0.1c-0.1,0-0.6,0-0.6,0.2c-0.2,0.6,2,0.3,2,1.9v11.3
			c0,4.2,1.2,8.3,7.4,8.2c7.4-0.1,7.2-6.8,7.2-8.1V4.7C155.3,2.2,156.5,2.4,156.7,2.1z"/>
		<path fill="#FFFFFF" d="M185.9,9.5c0.2-0.2,0.2-0.5-0.6-0.5c-0.5,0-0.8,0.1-1.3,0.1c-0.6,0-0.7,0-1.3,0c-0.7,0-0.9,0.1-0.9,0.3
			c0.1,0.6,1.6,0,1.4,1.9c-0.2,1.5-0.7,2.9-1.2,4.2l-1.8,4.8l-2.6-7.9c-0.3-1-0.5-1.5-0.5-1.6c0-1,1.2-0.8,1.5-1.2
			c0.2-0.3-0.2-0.4-0.6-0.4c-0.3,0-0.7,0.1-1.7,0.1c-0.8,0-1.4,0-1.8,0c-0.9-0.2-0.8,0.3-0.5,0.5c0.3,0.2,0.5,0,0.9,1.4l4,11.4
			c0.1,0.2,0.2,0.8,0.5,0.8c0.4,0,0.4-0.4,0.9-1.8c0,0,3.9-10.8,4.1-11.2C185.3,9.5,185.7,9.8,185.9,9.5z"/>
		<path fill="#FFFFFF" d="M200.8,9c-1.1,0-1.9,1.3-2.4,2.2h-0.1v-2c0-0.3-0.2-0.5-0.3-0.5c-0.4,0-0.7,0.8-3,1.4
			c-0.1,0-0.5,0.1-0.5,0.3c0,0.7,1.9-0.2,1.9,2v8.3c0,1.3-1.3,1.2-1.3,1.8c0,0.2,0.1,0.3,0.3,0.3c0.2,0,0.7-0.1,2.4-0.1
			c1.5,0,2.1,0.1,2.5,0.1c0.3,0,0.4-0.1,0.4-0.3c0-1-2.3,0.5-2.3-2.4V13c0-0.4,0.6-1.9,1.7-1.9c0.9,0,1.1,0.7,1.5,0.7
			c0.3,0,0.9-0.9,0.9-1.4C202.5,9.8,201.3,9,200.8,9z"/>
		<path fill="#FFFFFF" d="M234.4,9.1c-0.3,0-1,0-1.6,0c-0.8,0-1.2-0.1-1.5-0.1c-0.5,0-1,0-0.9,0.3c0.1,0.4,1.8,0.2,1.8,2.1
			c0,0.2,0,0.5-0.3,1.8l-2.2,6.8l-3-8.4c0,0-0.1-0.3-0.1-0.8c0-1.4,1.6-1.2,1.7-1.5c0.1-0.2-0.2-0.4-0.6-0.4c-0.4,0-1.1,0-2.1,0
			c-0.2,0-0.3,0-0.4,0c0,0,0,0,0,0h-1.2c0,0,0,0,0,0h-2.9c0-2.5,0-3.1-0.4-3.1c-0.4,0-0.3,0.1-0.7,1.2c-0.6,1.9-2.6,2.7-3.2,3.1
			c-0.2,0.1-0.2,0.1-0.2,0.2c0,0.2,0.8,0.1,2.4,0.2l0,8.3c0,3.6,1.7,4.2,3,4.2c1.9,0,3.3-1.4,3.4-1.9c0-0.3,0-0.3-0.2-0.3
			c-0.3,0.1-0.9,0.8-2.3,0.8c-1.1,0-1.7-0.7-1.8-2.1v-9.1c0,0,2.6,0,3.3,0c0,0.1,0.1,0.1,0.1,0.2l3.1,8.7c0.3,0.7,0.4,0.9,0.7,2.2
			c0.2,0.8,0.1,1.6,0.1,1.6c-0.3,1.3-1.1,2.1-2.3,4.5c-0.1,0.2,1.8,0,1.9-0.1c0.2,0,0.1-0.1,0.3-0.4l1.4-4.1l3.8-11.7
			c0.6-2,1.4-1.7,1.6-2C234.9,9.3,234.7,9.1,234.4,9.1z"/>
		<polygon fill="#FFFFFF" points="229.5,22.9 229.4,23.1 229.4,23.2 		"/>
		<path fill="#FFFFFF" d="M214.2,7.9c0.3,0,1.1-1.2,1.1-1.6c0-0.4-0.8-1.6-1.1-1.6c-0.3,0-1.1,1.3-1.1,1.6S213.9,7.9,214.2,7.9z"/>
		<path fill="#FFFFFF" d="M217,22.2c-0.5,0-1.7-0.2-1.7-1.4V9.3c0-0.3-0.2-0.5-0.3-0.5c-0.6,0-1,1.1-2.7,1.7c-0.1,0-0.4,0.1-0.4,0.2
			c0,0.7,1.5-0.6,1.5,1.8V20c0.1,1.9-1,2.1-1.6,2.1c-0.9,0-0.7,0.1-0.7,0.4c0,0.3,0.5,0.3,1.4,0.3c0.3,0,1-0.1,1.9-0.1
			c1.1,0,1.9,0.1,2.5,0.1C217.2,22.9,217.7,22,217,22.2z"/>
		<path fill="#FFFFFF" d="M172,7.9c0.3,0,1.1-1.2,1.1-1.6c0-0.4-0.8-1.6-1.1-1.6c-0.3,0-1.1,1.3-1.1,1.6S171.6,7.9,172,7.9z"/>
		<path fill="#FFFFFF" d="M174.7,22.2c-0.5,0-1.7-0.2-1.7-1.4V9.3c0-0.3-0.2-0.5-0.3-0.5c-0.6,0-1,1.1-2.7,1.7
			c-0.1,0-0.4,0.1-0.4,0.2c0,0.7,1.5-0.6,1.5,1.8V20c0.1,1.9-1,2.1-1.6,2.1c-0.1,0-0.1,0-0.2,0c-0.6-0.1-1.1-0.3-1.1-1.9V15
			c0-2.4-0.8-6-4.4-6c-2.6,0-3.9,2.5-3.9,2.1V9.3c0-0.3-0.2-0.5-0.3-0.5c-0.6,0-1.1,1-3.2,1.7c-0.1,0-0.5,0-0.5,0.3
			c0,0.7,2.1-0.9,2.1,1.7v7.9c0,2.1-1.4,1.6-1.7,2.1c-0.2,0.3,0.3,0.3,0.6,0.3c0.3,0,0.9-0.1,2.3-0.1c1.6,0,2.1,0.1,2.5,0.1
			c0.4,0,0.9-0.2,0.6-0.4c-0.4-0.4-2.4,0.1-2.4-2.1V13c0-0.5,0.9-2.5,3.2-2.5c2.2,0,3.1,2.4,3.1,4v6c0,2.3-0.8,1.6-1.2,2.1
			c-0.2,0.3,0.1,0.4,0.5,0.4c0.3,0,0.9-0.1,1.9-0.1c1.3,0,1.9,0.1,2.2,0.1c0,0,0.1,0,0.1,0c0.1,0,0.2,0,0.4,0c0.3,0,1-0.1,1.9-0.1
			c1.1,0,1.9,0.1,2.5,0.1C175,22.9,175.4,22,174.7,22.2z"/>
		<path fill="#FFFFFF" d="M208.5,15c-0.5-0.3-1.3-0.7-1.7-0.9c-1.7-0.9-2.3-1.5-2.4-2.4c-0.1-1.5,1.2-2.3,2.3-2.2
			c2.6,0,3,2.9,3.2,2.9c0.4,0,0.3-0.4,0.3-1.2c0-0.2,0-1.3-0.1-1.6c-0.3-0.5-2.2-0.8-2.6-0.8c-0.1,0-0.5,0-0.6,0c-0.1,0-0.3,0-0.3,0
			c-1.9,0-3.6,1.2-3.6,3.7c0.1,2.3,2.7,3.6,4.2,4.4c1.1,0.6,2.3,1.2,2.3,2.6c0,1.7-1.3,2.8-2.7,2.7c-3.3-0.1-2.8-4.1-3.4-4.1
			c-0.4,0-0.3,1-0.3,1.6c0,1.3-0.1,2.4,0.1,2.5c0,0.1,0.2,0,0.5,0c0.6,0,1.4,0.7,3.3,0.7c2.1,0,4-1.9,4-4.3
			C210.9,17.2,210.5,16.3,208.5,15z"/>
	</g>
</g>
</svg>
